<?xml version="1.0" encoding="UTF-8" standalone="no"?>
<!DOCTYPE svg PUBLIC "-//W3C//DTD SVG 1.1//EN" "http://www.w3.org/Graphics/SVG/1.1/DTD/svg11.dtd">
<!-- Created with Vectornator (http://vectornator.io/) -->
<svg height="100%" stroke-miterlimit="10" style="fill-rule:nonzero;clip-rule:evenodd;stroke-linecap:round;stroke-linejoin:round;" version="1.1" viewBox="0 0 3840 2160" width="100%" xml:space="preserve" xmlns="http://www.w3.org/2000/svg" xmlns:vectornator="http://vectornator.io" xmlns:xlink="http://www.w3.org/1999/xlink">
<defs>
<clipPath id="TextBounds">
<rect height="950.178" width="3840" x="0" y="604.911"/>
</clipPath>
</defs>
<clipPath id="ArtboardFrame">
<rect height="2160" width="3840" x="0" y="0"/>
</clipPath>
<g clip-path="url(#ArtboardFrame)" id="Layer-1" vectornator:layerName="Layer 1">
<path d="M400.033 451.504L3840 451.504L3439.46 1677.64L-3.2685e-13 1677.64L400.033 451.504Z" fill="#ffffff" fill-rule="evenodd" opacity="1" stroke="none"/>
<g fill="#000000" opacity="1" stroke="none">
<path clip-path="url(#TextBounds)" d="M746.4 1455.41C702 1455.41 661.5 1446.26 624.9 1427.96C588.3 1409.66 556.8 1385.21 530.4 1354.61C504 1324.01 483.6 1289.36 469.2 1250.66C454.8 1211.96 447.6 1172.21 447.6 1131.41C447.6 1088.81 455.1 1048.16 470.1 1009.46C485.1 970.761 506.25 936.261 533.55 905.961C560.85 875.661 592.65 851.661 628.95 833.961C665.25 816.261 704.4 807.411 746.4 807.411C790.8 807.411 831.3 816.711 867.9 835.311C904.5 853.911 935.85 878.811 961.95 910.011C988.05 941.211 1008.3 976.011 1022.7 1014.41C1037.1 1052.81 1044.3 1091.81 1044.3 1131.41C1044.3 1174.61 1036.8 1215.56 1021.8 1254.26C1006.8 1292.96 985.8 1327.46 958.8 1357.76C931.8 1388.06 900.15 1411.91 863.85 1429.31C827.55 1446.71 788.4 1455.41 746.4 1455.41ZM479.1 1131.41C479.1 1169.81 485.7 1206.56 498.9 1241.66C512.1 1276.76 530.55 1308.11 554.25 1335.71C577.95 1363.31 606.15 1385.21 638.85 1401.41C671.55 1417.61 707.4 1425.71 746.4 1425.71C786 1425.71 822.3 1417.31 855.3 1400.51C888.3 1383.71 916.5 1361.21 939.9 1333.01C963.3 1304.81 981.3 1273.31 993.9 1238.51C1006.5 1203.71 1012.8 1168.01 1012.8 1131.41C1012.8 1093.01 1006.2 1056.26 993 1021.16C979.8 986.061 961.2 954.711 937.2 927.111C913.2 899.511 884.85 877.611 852.15 861.411C819.45 845.211 784.2 837.111 746.4 837.111C706.2 837.111 669.75 845.511 637.05 862.311C604.35 879.111 576.3 901.611 552.9 929.811C529.5 958.011 511.35 989.511 498.45 1024.31C485.55 1059.11 479.1 1094.81 479.1 1131.41Z" fill-rule="evenodd"/>
<path clip-path="url(#TextBounds)" d="M1542.9 906.411C1530.9 893.811 1518.6 883.011 1506 874.011C1493.4 865.011 1479.9 857.811 1465.5 852.411C1451.1 847.011 1435.8 842.961 1419.6 840.261C1403.4 837.561 1385.7 836.211 1366.5 836.211C1298.7 836.211 1249.5 849.111 1218.9 874.911C1188.3 900.711 1173 935.211 1173 978.411C1173 1007.81 1179.6 1030.91 1192.8 1047.71C1206 1064.51 1227 1077.86 1255.8 1087.76C1284.6 1097.66 1321.8 1107.41 1367.4 1117.01C1414.2 1126.61 1454.7 1137.71 1488.9 1150.31C1523.1 1162.91 1549.5 1180.01 1568.1 1201.61C1586.7 1223.21 1596 1252.91 1596 1290.71C1596 1317.71 1590.75 1341.56 1580.25 1362.26C1569.75 1382.96 1554.6 1400.21 1534.8 1414.01C1515 1427.81 1491.15 1438.16 1463.25 1445.06C1435.35 1451.96 1404.3 1455.41 1370.1 1455.41C1335.9 1455.41 1304.1 1451.96 1274.7 1445.06C1245.3 1438.16 1217.7 1427.51 1191.9 1413.11C1166.1 1398.71 1141.8 1380.41 1119 1358.21L1137.9 1334.81C1152.3 1350.41 1168.05 1364.06 1185.15 1375.76C1202.25 1387.46 1220.55 1397.21 1240.05 1405.01C1259.55 1412.81 1280.25 1418.66 1302.15 1422.56C1324.05 1426.46 1347 1428.41 1371 1428.41C1431 1428.41 1478.25 1417.16 1512.75 1394.66C1547.25 1372.16 1564.5 1339.01 1564.5 1295.21C1564.5 1264.61 1557 1240.16 1542 1221.86C1527 1203.56 1504.2 1188.56 1473.6 1176.86C1443 1165.16 1404 1154.51 1356.6 1144.91C1310.4 1135.31 1271.25 1124.81 1239.15 1113.41C1207.05 1102.01 1182.75 1086.11 1166.25 1065.71C1149.75 1045.31 1141.5 1017.71 1141.5 982.911C1141.5 945.111 1150.8 913.161 1169.4 887.061C1188 860.961 1214.1 841.161 1247.7 827.661C1281.3 814.161 1320.6 807.411 1365.6 807.411C1393.2 807.411 1418.4 810.111 1441.2 815.511C1464 820.911 1485.15 829.011 1504.65 839.811C1524.15 850.611 1542.6 865.011 1560 883.011L1542.9 906.411Z" fill-rule="evenodd"/>
<path clip-path="url(#TextBounds)" d="M1663.5 1126.91C1663.5 1087.91 1670.25 1049.66 1683.75 1012.16C1697.25 974.661 1717.05 940.461 1743.15 909.561C1769.25 878.661 1801.2 854.061 1839 835.761C1876.8 817.461 1919.7 808.311 1967.7 808.311C2024.7 808.311 2073.6 821.361 2114.4 847.461C2155.2 873.561 2185.5 907.011 2205.3 947.811L2141.4 989.211C2128.8 962.211 2112.75 940.761 2093.25 924.861C2073.75 908.961 2052.75 897.711 2030.25 891.111C2007.75 884.511 1985.7 881.211 1964.1 881.211C1928.7 881.211 1897.35 888.411 1870.05 902.811C1842.75 917.211 1819.8 936.411 1801.2 960.411C1782.6 984.411 1768.65 1011.26 1759.35 1040.96C1750.05 1070.66 1745.4 1100.51 1745.4 1130.51C1745.4 1163.51 1750.95 1195.31 1762.05 1225.91C1773.15 1256.51 1788.6 1283.51 1808.4 1306.91C1828.2 1330.31 1851.6 1348.91 1878.6 1362.71C1905.6 1376.51 1935 1383.41 1966.8 1383.41C1989 1383.41 2011.8 1379.51 2035.2 1371.71C2058.6 1363.91 2080.5 1351.76 2100.9 1335.26C2121.3 1318.76 2137.5 1297.31 2149.5 1270.91L2217 1307.81C2203.8 1339.61 2183.4 1366.61 2155.8 1388.81C2128.2 1411.01 2097.45 1427.81 2063.55 1439.21C2029.65 1450.61 1996.2 1456.31 1963.2 1456.31C1919.4 1456.31 1879.2 1446.86 1842.6 1427.96C1806 1409.06 1774.35 1383.86 1747.65 1352.36C1720.95 1320.86 1700.25 1285.46 1685.55 1246.16C1670.85 1206.86 1663.5 1167.11 1663.5 1126.91Z" fill-rule="evenodd"/>
<path clip-path="url(#TextBounds)" d="M2504.1 811.911L2572.5 811.911L2833.5 1450.91L2747.1 1450.91L2671.5 1263.71L2403.3 1263.71L2328.6 1450.91L2242.2 1450.91L2504.1 811.911ZM2653.5 1200.71L2538.3 905.511L2419.5 1200.71L2653.5 1200.71Z" fill-rule="evenodd"/>
<path clip-path="url(#TextBounds)" d="M2919 1450.91L2919 811.911L3192.6 811.911C3220.8 811.911 3246.6 817.761 3270 829.461C3293.4 841.161 3313.8 856.761 3331.2 876.261C3348.6 895.761 3362.1 917.661 3371.7 941.961C3381.3 966.261 3386.1 991.011 3386.1 1016.21C3386.1 1045.61 3380.55 1073.51 3369.45 1099.91C3358.35 1126.31 3342.75 1148.81 3322.65 1167.41C3302.55 1186.01 3279 1198.91 3252 1206.11L3406.8 1450.91L3315 1450.91L3169.2 1221.41L3000 1221.41L3000 1450.91L2919 1450.91ZM3000 1149.41L3193.5 1149.41C3215.7 1149.41 3235.05 1143.26 3251.55 1130.96C3268.05 1118.66 3280.95 1102.31 3290.25 1081.91C3299.55 1061.51 3304.2 1039.61 3304.2 1016.21C3304.2 992.211 3298.8 970.161 3288 950.061C3277.2 929.961 3263.1 913.911 3245.7 901.911C3228.3 889.911 3209.1 883.911 3188.1 883.911L3000 883.911L3000 1149.41Z" fill-rule="evenodd"/>
</g>
</g>
</svg>
