<?xml version="1.0" standalone="no"?>
<!DOCTYPE svg PUBLIC "-//W3C//DTD SVG 20010904//EN" "http://www.w3.org/TR/2001/REC-SVG-20010904/DTD/svg10.dtd">
<!-- Created using Krita: https://krita.org -->
<svg xmlns="http://www.w3.org/2000/svg" 
    xmlns:xlink="http://www.w3.org/1999/xlink"
    xmlns:krita="http://krita.org/namespaces/svg/krita"
    xmlns:sodipodi="http://sodipodi.sourceforge.net/DTD/sodipodi-0.dtd"
    width="460.8pt"
    height="259.2pt"
    viewBox="0 0 460.8 259.2">
<defs/>
<path id="shape0" transform="matrix(-0.183066427549622 -0.983100408635945 0.983100408635945 -0.183066427549622 184.846814211363 110.485358204011)" fill="#e6e6e6" fill-rule="evenodd" stroke="#bfbfbf" stroke-width="0.9576" stroke-linecap="square" stroke-linejoin="bevel" d="M0 6.26374C0 -2.35284 13.8967 -1.44781 16.608 5.14054C18.0834 8.72574 17.2733 13.4438 13.7813 15.7485C11.9144 17.0194 5.0879 18.4429 7.37067 18.4461" sodipodi:nodetypes="cccc"/><path id="shape01" transform="matrix(-0.272260133037701 -0.962223511504904 0.962223511504904 -0.272260133037701 190.091553473211 107.016383987384)" fill="#cccccc" fill-rule="evenodd" stroke="#bfbfbf" stroke-width="0.9576" stroke-linecap="square" stroke-linejoin="bevel" d="M0 3.582C0 -1.3455 7.19009 -0.827946 8.59291 2.93968C9.35627 4.98992 8.93713 7.688 7.13038 9.00597C6.12928 9.7363 2.61403 10.5486 3.81355 10.5486" sodipodi:nodetypes="cccc"/><path id="shape011" transform="matrix(0.999993459265639 -0.00359162621010346 0.00359162621010346 0.999993459265639 228.116976853043 88.8118714926051)" fill="#e6e6e6" fill-rule="evenodd" stroke="#bfbfbf" stroke-width="0.9576" stroke-linecap="square" stroke-linejoin="bevel" d="M0 6.26374C0 -2.35284 13.8967 -1.44781 16.608 5.14054C18.0834 8.72574 17.2733 13.4438 13.7813 15.7485C11.8464 17.0256 5.05229 18.4461 7.37067 18.4461" sodipodi:nodetypes="cccc"/><path id="shape02" transform="matrix(0.999791079344118 -0.0204335023874154 0.0204335023874154 0.999791079344118 231.189920241321 93.506650744919)" fill="#cccccc" fill-rule="evenodd" stroke="#bfbfbf" stroke-width="0.9576" stroke-linecap="square" stroke-linejoin="bevel" d="M0 3.582C0 -1.3455 7.19009 -0.827946 8.59291 2.93968C9.35627 4.98992 8.93713 7.688 7.13038 9.00597C6.12928 9.7363 2.61403 10.5486 3.81355 10.5486" sodipodi:nodetypes="cccc"/><path id="shape1" transform="matrix(0.999993459265639 -0.00359162621010346 0.00359162621010346 0.999993459265639 179.846307496547 148.994971968425)" fill="#e6e6e6" fill-rule="evenodd" stroke="#bfbfbf" stroke-width="0.9576" stroke-linecap="square" stroke-linejoin="bevel" d="M16.5718 0C3.66782 0 -8.47059 20.4104 7.91052 25.0176C9.31433 25.4124 13.7066 25.4529 12.2838 25.1328" sodipodi:nodetypes="ccc"/><path id="shape2" transform="matrix(0.999993459265639 -0.00359162621010346 0.00359162621010346 0.999993459265639 187.297195288817 91.5468421958141)" fill="#ffffff" fill-rule="evenodd" stroke="#bfbfbf" stroke-width="0.9576" stroke-linecap="square" stroke-linejoin="bevel" d="M17.576 3.2626C7.73714 7.06695 1.55254 15.5785 3.56001 22.093C6.18235 34.1832 10.1526 38.7987 10.536 48.589C7.99057 59.953 5.72668 73.0194 0.253344 84.8002C-0.288511 86.6425 0.0325073 90.6798 1.27734 92.4034C2.58016 94.2259 1.35389 97.5935 19.7307 95.6866C24.2463 95.2584 21.4548 92.7487 24.6593 90.91C20.5007 98.5037 36.7513 99.6826 46.6092 95.5197C64.5256 67.5428 78.4539 81.1351 82.3867 80.9602C104.35 61.7743 63.1934 52.4418 56.5093 41.677C48.2027 32.8275 58.3589 -12.3606 17.7467 3.253" sodipodi:nodetypes="ccccccccccc"/><path id="shape4" transform="matrix(0.999993459265639 -0.00359162621010346 0.00359162621010346 0.999993459265639 236.808696656603 150.714515425881)" fill="#ffffff" fill-rule="evenodd" stroke="#cccccc" stroke-width="0.9576" stroke-linecap="square" stroke-linejoin="bevel" d="M4.416 25.3399C-1.12319 29.1752 10.0069 9.98364 17.7173 5.61187C23.9981 1.06606 42.1418 -4.88673 43.84 6.83107C44.4587 11.1 43.5196 17.4449 40.9173 20.8279C37.9137 24.7326 34.5541 30.7506 28.864 32.0983C19.6861 35.1468 14.7215 33.9393 0 31.5415" sodipodi:nodetypes="cccccc"/><path id="shape5" transform="matrix(-0.995136669202148 -0.135422572729359 0.0425743577398026 -0.999093210074018 278.225002099713 186.59539637858)" fill="#e6e6e6" fill-rule="evenodd" stroke-opacity="0" stroke="#000000" stroke-width="0" stroke-linecap="square" stroke-linejoin="bevel" d="M1.29734 15.7511C0.847891 15.463 -1.30651 29.5134 1.1706 30.8122C13.5364 37.2756 36.6331 19.6516 32.2857 7.27315C27.1075 -7.47116 5.69752 2.68772 1.37164 15.743" sodipodi:nodetypes="cccc"/><path id="shape6" transform="matrix(0.999993459265639 -0.00359162621010346 0.00359162621010346 0.999993459265639 238.566741024658 96.7873492014867)" fill="#e6e6e6" fill-rule="evenodd" stroke="#e6e6e6" stroke-width="0.9576" stroke-linecap="square" stroke-linejoin="bevel" d="M0.213614 0.13239C-0.120406 -0.101424 0.00741793 0.0285851 0.128281 0.11319" sodipodi:nodetypes="cc"/><path id="shape71" transform="matrix(0.999993459265639 -0.00359162621010346 0.00359162621010346 0.999993459265639 211.031435449455 110.315751072404)" fill="#d9d9d9" fill-rule="evenodd" stroke-opacity="0" stroke="#000000" stroke-width="0" stroke-linecap="square" stroke-linejoin="bevel" d="M0 0.90137C0.0176472 0.853722 0.394972 3.16291 0.533333 3.69497C1.37273 6.92282 2.88719 8.89013 6.58133 7.22777C6.86073 7.10204 6.73067 5.66874 6.73067 5.37497C6.73067 0.0624796 9.49598 -0.453873 2.66667 0.24857C2.32217 0.284004 0.0746667 0.409602 0.0746667 0.76697" sodipodi:nodetypes="cccccc"/><path id="shape8" transform="matrix(0.999993459265639 -0.00359162621010346 0.00359162621010346 0.999993459265639 211.585374356631 119.021755109318)" fill="#000000" fill-rule="evenodd" stroke="#000000" stroke-width="0.9576" stroke-linecap="square" stroke-linejoin="bevel" d="M0 1.63983C0 7.36126 8.04716 7.45137 8.61867 1.79343C9.00668 -2.04786 -0.371108 1.47663 0.0533333 1.47663" sodipodi:nodetypes="ccc"/><ellipse id="shape9" transform="matrix(0.85663768435014 0.51591830371114 -0.51591830371114 0.85663768435014 203.624816608773 108.428098755183)" rx="2.24000000000004" ry="2.39999999999999" cx="2.24000000000004" cy="2.39999999999999" fill="#000000" fill-rule="evenodd" stroke="#000000" stroke-width="0.9576" stroke-linecap="square" stroke-linejoin="bevel"/><ellipse id="shape10" transform="matrix(0.948145827284279 0.332758686044445 -0.237032310293593 0.97150167381731 251.876565100654 165.44642815932)" rx="9.24002312351811" ry="5.28" cx="9.24002312351811" cy="5.28" fill="#cccccc" fill-rule="evenodd" stroke="#cccccc" stroke-width="0.9576" stroke-linecap="square" stroke-linejoin="bevel"/><ellipse id="shape11" transform="matrix(0.76472588838342 0.644355595916683 -0.644355595916683 0.76472588838342 261.079747244867 157.24571518957)" rx="1.66638126964452" ry="3.72" cx="1.66638126964452" cy="3.72" fill="#cccccc" fill-rule="evenodd" stroke="#cccccc" stroke-width="0.9576" stroke-linecap="square" stroke-linejoin="bevel"/><ellipse id="shape03" transform="matrix(0.799301530510156 -0.600929972836565 0.600929972836565 0.799301530510156 220.953439388366 109.506379163379)" rx="2.24000000000004" ry="2.39999999999999" cx="2.24000000000004" cy="2.39999999999999" fill="#000000" fill-rule="evenodd" stroke="#000000" stroke-width="0.9576" stroke-linecap="square" stroke-linejoin="bevel"/><ellipse id="shape04" transform="matrix(0.682291122091922 0.73108044066327 -0.73108044066327 0.682291122091922 270.600280541178 157.772286880731)" rx="1.74245507588288" ry="2.90890250899131" cx="1.74245507588288" cy="2.90890250899131" fill="#cccccc" fill-rule="evenodd" stroke="#cccccc" stroke-width="0.9576" stroke-linecap="square" stroke-linejoin="bevel"/><ellipse id="shape05" transform="matrix(0.8028756558503 0.596146298012632 -0.596146298012632 0.8028756558503 273.489347748751 164.706363677895)" rx="1.72034336216842" ry="2.90890250899131" cx="1.72034336216842" cy="2.90890250899131" fill="#cccccc" fill-rule="evenodd" stroke="#cccccc" stroke-width="0.9576" stroke-linecap="square" stroke-linejoin="bevel"/><path id="shape12" transform="matrix(0.999710074362191 -0.024074583520589 0.024074583520589 0.999710074362191 210.31826026904 149.150658729602)" fill="none" stroke="#bfbfbf" stroke-width="0.9576" stroke-linecap="square" stroke-linejoin="bevel" d="M0.0315924 34.4027C-0.245254 34.4027 1.38396 26.6697 1.54811 26.1177C2.90348 21.5595 2.94249 16.5872 3.92119 11.9279C4.01556 11.4786 5.30842 0.426074 4.39861 3.12839e-05C4.36367 -0.0163278 4.43371 6.38873 4.62328 6.2467" sodipodi:nodetypes="ccccc"/><path id="shape13" transform="matrix(-0.999993459265639 0.00359162621010346 0.00359162621010346 0.999993459265639 238.182816349255 146.989286358835)" fill="none" stroke="#bfbfbf" stroke-width="0.9576" stroke-linecap="square" stroke-linejoin="bevel" d="M2.08707 36.1442C-0.657435 31.4048 0.0941109 7.3427 0.0941109 0" sodipodi:nodetypes="cc"/><path id="shape06" transform="matrix(-0.958915559992958 -0.283691274624275 -0.283691274624275 0.958915559992958 221.490138366816 150.421142387718)" fill="none" stroke="#bfbfbf" stroke-width="0.9576" stroke-linecap="square" stroke-linejoin="bevel" d="M0.0229352 34.4027C-0.178048 34.4027 1.00472 26.6697 1.12389 26.1177C2.10785 21.5595 2.13617 16.5872 2.84668 11.9279C2.91519 11.4786 3.85377 0.426074 3.19327 3.12839e-05C3.1679 -0.0163278 3.21875 6.38873 3.35637 6.2467" sodipodi:nodetypes="ccccc"/><path id="shape14" transform="matrix(0.999993459265639 -0.00359162621010346 0.00359162621010346 0.999993459265639 211.71033645418 123.769876548524)" fill="none" stroke="#000000" stroke-width="0.9576" stroke-linecap="square" stroke-linejoin="bevel" d="M4.48023 0.13934C4.48023 -0.556628 4.4573 1.54651 4.26904 2.21654C3.90759 3.50298 0 5.57864 0 4.09009" sodipodi:nodetypes="ccc"/><path id="shape15" transform="matrix(0.999993459265639 -0.00359162621010346 0.00359162621010346 0.999993459265639 216.465719049776 125.16214085885)" fill="none" stroke="#000000" stroke-width="0.9576" stroke-linecap="square" stroke-linejoin="bevel" d="M0.0014057 0.00619225C-0.0460089 -0.207173 1.09383 5.18793 5.28114 1.59464" sodipodi:nodetypes="cc"/>
</svg>
