<?xml version="1.0" encoding="UTF-8" standalone="no"?>
<!DOCTYPE svg PUBLIC "-//W3C//DTD SVG 1.1//EN" "http://www.w3.org/Graphics/SVG/1.1/DTD/svg11.dtd"
[
<!ATTLIST g
  xmlns:vectornator CDATA #FIXED "http://vectornator.io"
  vectornator:layerName CDATA #IMPLIED >
<!ATTLIST g
  xmlns:vectornator CDATA #FIXED "http://vectornator.io"
  vectornator:mask CDATA #IMPLIED >
<!ATTLIST text
  xmlns:vectornator CDATA #FIXED "http://vectornator.io"
  vectornator:width CDATA #IMPLIED >

<!ATTLIST path
  xmlns:vectornator CDATA #FIXED "http://vectornator.io"
  vectornator:blendMode CDATA #IMPLIED >
<!ATTLIST path
  xmlns:vectornator CDATA #FIXED "http://vectornator.io"
  vectornator:shadowColor CDATA #IMPLIED >
<!ATTLIST path
  xmlns:vectornator CDATA #FIXED "http://vectornator.io"
  vectornator:shadowOpacity CDATA #IMPLIED >
<!ATTLIST path
  xmlns:vectornator CDATA #FIXED "http://vectornator.io"
  vectornator:shadowRadius CDATA #IMPLIED >
<!ATTLIST path
  xmlns:vectornator CDATA #FIXED "http://vectornator.io"
  vectornator:shadowOffset CDATA #IMPLIED >
<!ATTLIST path
  xmlns:vectornator CDATA #FIXED "http://vectornator.io"
  vectornator:shadowAngle CDATA #IMPLIED >

<!ATTLIST image
  xmlns:vectornator CDATA #FIXED "http://vectornator.io"
  vectornator:blendMode CDATA #IMPLIED >
<!ATTLIST image
  xmlns:vectornator CDATA #FIXED "http://vectornator.io"
  vectornator:shadowColor CDATA #IMPLIED >
<!ATTLIST image
  xmlns:vectornator CDATA #FIXED "http://vectornator.io"
  vectornator:shadowOpacity CDATA #IMPLIED >
<!ATTLIST image
  xmlns:vectornator CDATA #FIXED "http://vectornator.io"
  vectornator:shadowRadius CDATA #IMPLIED >
<!ATTLIST image
  xmlns:vectornator CDATA #FIXED "http://vectornator.io"
  vectornator:shadowOffset CDATA #IMPLIED >
<!ATTLIST image
  xmlns:vectornator CDATA #FIXED "http://vectornator.io"
  vectornator:shadowAngle CDATA #IMPLIED >

<!ATTLIST g
  xmlns:vectornator CDATA #FIXED "http://vectornator.io"
  vectornator:blendMode CDATA #IMPLIED >
<!ATTLIST g
  xmlns:vectornator CDATA #FIXED "http://vectornator.io"
  vectornator:shadowColor CDATA #IMPLIED >
<!ATTLIST g
  xmlns:vectornator CDATA #FIXED "http://vectornator.io"
  vectornator:shadowOpacity CDATA #IMPLIED >
<!ATTLIST g
  xmlns:vectornator CDATA #FIXED "http://vectornator.io"
  vectornator:shadowRadius CDATA #IMPLIED >
<!ATTLIST g
  xmlns:vectornator CDATA #FIXED "http://vectornator.io"
  vectornator:shadowOffset CDATA #IMPLIED >
<!ATTLIST g
  xmlns:vectornator CDATA #FIXED "http://vectornator.io"
  vectornator:shadowAngle CDATA #IMPLIED >

<!ENTITY % SVG.filter.extra.content  "| feDropShadow" >
<!ELEMENT feDropShadow EMPTY>
<!ATTLIST feDropShadow
  xmlns:svg CDATA #FIXED "http://www.w3.org/Graphics/SVG/1.1/DTD/svg11.dtd"
  dx CDATA #IMPLIED>
<!ATTLIST feDropShadow
  xmlns:svg CDATA #FIXED "http://www.w3.org/Graphics/SVG/1.1/DTD/svg11.dtd"
  dy CDATA #IMPLIED>
<!ATTLIST feDropShadow
  xmlns:svg CDATA #FIXED "http://www.w3.org/Graphics/SVG/1.1/DTD/svg11.dtd"
  stdDeviation CDATA #IMPLIED>
<!ATTLIST feDropShadow
  xmlns:svg CDATA #FIXED "http://www.w3.org/Graphics/SVG/1.1/DTD/svg11.dtd"
  flood-opacity CDATA #IMPLIED>
<!ATTLIST feDropShadow
  xmlns:svg CDATA #FIXED "http://www.w3.org/Graphics/SVG/1.1/DTD/svg11.dtd"
  in CDATA #IMPLIED>
<!ATTLIST feDropShadow
  xmlns:svg CDATA #FIXED "http://www.w3.org/Graphics/SVG/1.1/DTD/svg11.dtd"
  result CDATA #IMPLIED>
<!ATTLIST feDropShadow
  xmlns:svg CDATA #FIXED "http://www.w3.org/Graphics/SVG/1.1/DTD/svg11.dtd"
  flood-color CDATA #IMPLIED>
]
>
<!-- Created with Vectornator (http://vectornator.io/) -->
<svg height="100%" stroke-miterlimit="10" style="fill-rule:nonzero;clip-rule:evenodd;stroke-linecap:round;stroke-linejoin:round;" version="1.1" viewBox="0 0 448.54 306.81" width="100%" xml:space="preserve" xmlns="http://www.w3.org/2000/svg" xmlns:vectornator="http://vectornator.io" xmlns:xlink="http://www.w3.org/1999/xlink">
<defs>
<path d="M100.165 25.8985L65.3388 68.4796L54.6955 121.83L56.4011 221.9L83.0782 268.182L133.589 277.272L177.608 248.47L181.652 192.854L193.881 137.563L219.317 75.3567L191.458 18.9179L138.256 9.15481L100.165 25.8985Z" fill-rule="evenodd" id="Fill"/>
<filter color-interpolation-filters="sRGB" filterUnits="userSpaceOnUse" height="398.077" id="Filter" width="464.669" x="-18.4752" y="-21.6809">
<feDropShadow dx="-3.67321e-05" dy="10" flood-color="#000000" flood-opacity="0.333" in="SourceGraphic" result="Shadow" stdDeviation="5"/>
</filter>
</defs>
<clipPath id="ArtboardFrame">
<rect height="306.81" width="448.54" x="0" y="0"/>
</clipPath>
<g clip-path="url(#ArtboardFrame)" id="Bavaria" vectornator:layerName="Bavaria">
<path d="M-1.24345e-14 0L448.58 0L448.58 306.849L-1.24345e-14 306.849L-1.24345e-14 0Z" fill="#ffffff" fill-rule="evenodd" opacity="0" stroke="none"/>
<use fill="#ff0000" opacity="1" stroke="none" xlink:href="#Fill"/>
<clipPath id="ClipPath">
<use xlink:href="#Fill"/>
</clipPath>
<g clip-path="url(#ClipPath)">
<g filter="url(#Filter)" vectornator:shadowAngle="1.5708" vectornator:shadowColor="#000000" vectornator:shadowOffset="10" vectornator:shadowOpacity="0.333" vectornator:shadowRadius="10">
<path d="M72.6792-21.6809L436.193 88.3972L436.193 88.3972L355.039 356.396L355.039 356.396L-8.47515 246.318L-8.47515 246.318L72.6792-21.6809L72.6792-21.6809Z" fill="#ffffff" fill-rule="evenodd" opacity="1" stroke="none"/>
<g opacity="1">
<path d="M427.114 85.6482L428.078 115.198L435.311 91.3099L427.114 85.6487L427.114 85.6482Z" fill="#0098d4" fill-rule="evenodd" opacity="1" stroke="none"/>
<path d="M362.19 300.047L363.155 329.593L370.454 305.491C370.454 305.491 362.19 300.047 362.19 300.047Z" fill="#0098d4" fill-rule="evenodd" opacity="1" stroke="none"/>
<path d="M323.893 229.935L325.34 274.256L362.191 300.044L360.719 255.712C360.719 255.712 323.893 229.935 323.893 229.935Z" fill="#0098d4" fill-rule="evenodd" opacity="1" stroke="none"/>
<path d="M394.652 192.847L394.805 225.076L402.883 198.4C402.883 198.4 394.652 192.847 394.652 192.847Z" fill="#0098d4" fill-rule="evenodd" opacity="1" stroke="none"/>
<path d="M359.272 211.391L360.745 255.72L381.279 269.741L392.1 234.009C392.1 234.009 359.272 211.391 359.272 211.391Z" fill="#0098d4" fill-rule="evenodd" opacity="1" stroke="none"/>
<path d="M391.734 104.192L393.206 148.523L413.741 162.542L424.562 126.809C424.562 126.809 391.734 104.192 391.734 104.192Z" fill="#0098d4" fill-rule="evenodd" opacity="1" stroke="none"/>
<path d="M354.401 63.629L354.908 78.4114L391.734 104.192L390.77 74.6423C390.77 74.6423 354.401 63.629 354.401 63.629Z" fill="#0098d4" fill-rule="evenodd" opacity="1" stroke="none"/>
<path d="M356.355 122.735L357.801 167.059L394.652 192.847L393.18 148.515C393.18 148.515 356.355 122.735 356.355 122.735Z" fill="#0098d4" fill-rule="evenodd" opacity="1" stroke="none"/>
<path d="M318.055 52.6228L319.503 96.9475L356.355 122.735L354.883 78.4037C354.883 78.4037 318.054 52.6228 318.055 52.6228Z" fill="#0098d4" fill-rule="evenodd" opacity="1" stroke="none"/>
<path d="M320.975 141.279L322.447 185.611L359.272 211.391L357.801 167.059L320.975 141.279Z" fill="#0098d4" fill-rule="evenodd" opacity="1" stroke="none"/>
<path d="M285.595 159.823L287.042 204.144L323.894 229.932L322.421 185.603C322.421 185.603 285.595 159.823 285.595 159.823Z" fill="#0098d4" fill-rule="evenodd" opacity="1" stroke="none"/>
<path d="M250.213 178.366L251.673 222.691L288.514 248.476L287.041 204.147C287.041 204.147 250.213 178.366 250.213 178.366Z" fill="#0098d4" fill-rule="evenodd" opacity="1" stroke="none"/>
<path d="M282.675 71.1666L284.134 115.494L320.975 141.279L319.503 96.9475C319.503 96.9475 282.675 71.1666 282.675 71.1666Z" fill="#0098d4" fill-rule="evenodd" opacity="1" stroke="none"/>
<path d="M245.352 30.6072L245.839 45.3834L282.675 71.1666L281.703 41.615C281.703 41.615 245.352 30.6072 245.352 30.6072Z" fill="#0098d4" fill-rule="evenodd" opacity="1" stroke="none"/>
<path d="M247.295 89.7104L248.754 134.038L285.593 159.822L284.134 115.494L247.295 89.7104Z" fill="#0098d4" fill-rule="evenodd" opacity="1" stroke="none"/>
<path d="M211.918 108.255L213.377 152.583L250.213 178.366L248.754 134.038L211.918 108.255Z" fill="#0098d4" fill-rule="evenodd" opacity="1" stroke="none"/>
<path d="M326.811 318.588L327.775 348.14L355.039 356.396L359.643 341.193C359.643 341.193 326.811 318.588 326.811 318.588Z" fill="#0098d4" fill-rule="evenodd" opacity="1" stroke="none"/>
<path d="M173.621 38.1432L175.08 82.471L211.918 108.255L210.459 63.9272L173.621 38.1432Z" fill="#0098d4" fill-rule="evenodd" opacity="1" stroke="none"/>
<path d="M136.295-2.41704L136.782 12.3592L173.621 38.1432L172.646 8.59077C172.646 8.59077 136.295-2.41704 136.295-2.41704Z" fill="#0098d4" fill-rule="evenodd" opacity="1" stroke="none"/>
<path d="M144.078 233.996L145.539 278.313L182.374 304.11L180.916 259.78C180.916 259.78 144.078 233.996 144.078 233.996Z" fill="#0098d4" fill-rule="evenodd" opacity="1" stroke="none"/>
<path d="M53.7435 40.8513L42.9231 76.5836L67.4817 93.7746L66.022 49.4465C66.022 49.4465 53.7435 40.8513 53.7435 40.8513Z" fill="#0098d4" fill-rule="evenodd" opacity="1" stroke="none"/>
<path d="M138.241 56.687L139.7 101.015L176.538 126.799L175.08 82.471L138.241 56.687Z" fill="#0098d4" fill-rule="evenodd" opacity="1" stroke="none"/>
<path d="M176.538 126.799L177.996 171.123L214.837 196.908L213.375 152.579C213.375 152.579 176.538 126.799 176.538 126.799Z" fill="#0098d4" fill-rule="evenodd" opacity="1" stroke="none"/>
<path d="M253.131 267.022L254.583 311.334L291.431 337.134L289.96 292.8C289.96 292.8 253.131 267.022 253.131 267.022Z" fill="#0098d4" fill-rule="evenodd" opacity="1" stroke="none"/>
<path d="M179.457 215.452L180.916 259.78L217.752 285.563L216.293 241.235L179.457 215.452Z" fill="#0098d4" fill-rule="evenodd" opacity="1" stroke="none"/>
<path d="M288.514 248.476L289.96 292.8L326.811 318.588L325.34 274.256C325.34 274.256 288.514 248.476 288.514 248.476Z" fill="#0098d4" fill-rule="evenodd" opacity="1" stroke="none"/>
<path d="M209 19.5994L210.459 63.9273L247.295 89.7105L245.839 45.3835C245.839 45.3835 209 19.5994 209 19.5994Z" fill="#0098d4" fill-rule="evenodd" opacity="1" stroke="none"/>
<path d="M214.833 196.91L216.293 241.235L253.132 267.019L251.673 222.691C251.673 222.691 214.833 196.91 214.833 196.91Z" fill="#0098d4" fill-rule="evenodd" opacity="1" stroke="none"/>
<path d="M217.752 285.563L218.726 315.118L255.087 326.129L254.583 311.334C254.583 311.334 217.752 285.563 217.752 285.563Z" fill="#0098d4" fill-rule="evenodd" opacity="1" stroke="none"/>
<path d="M-0.358341 219.515L0.612927 249.07L36.9643 260.077L36.4836 245.289L-0.358084 219.516L-0.358341 219.515Z" fill="#0098d4" fill-rule="evenodd" opacity="1" stroke="none"/>
<path d="M108.698 252.539L109.669 282.094L146.02 293.101L145.537 278.313C145.537 278.313 108.698 252.539 108.698 252.539Z" fill="#0098d4" fill-rule="evenodd" opacity="1" stroke="none"/>
<path d="M141.159 145.343L142.619 189.668L179.457 215.452L177.998 171.124C177.998 171.124 141.159 145.343 141.159 145.343Z" fill="#0098d4" fill-rule="evenodd" opacity="1" stroke="none"/>
<path d="M35.0199 200.974L36.4827 245.289L73.3175 271.086L71.8593 226.755C71.8593 226.755 35.0199 200.974 35.0199 200.974Z" fill="#0098d4" fill-rule="evenodd" opacity="1" stroke="none"/>
<path d="M21.2817 148.051L10.4614 183.783L35.0207 200.971L33.5612 156.646C33.5612 156.646 21.2817 148.051 21.2817 148.051Z" fill="#0098d4" fill-rule="evenodd" opacity="1" stroke="none"/>
<path d="M105.779 163.886L107.239 208.212L144.078 233.996L142.618 189.67L105.779 163.886Z" fill="#0098d4" fill-rule="evenodd" opacity="1" stroke="none"/>
<path d="M64.5638 5.11896L66.023 49.4468L102.862 75.2309L101.403 30.903L64.564 5.11904L64.5638 5.11896Z" fill="#0098d4" fill-rule="evenodd" opacity="1" stroke="none"/>
<path d="M102.861 75.2308L104.321 119.556L141.159 145.343L139.701 101.012C139.701 101.012 102.861 75.2308 102.861 75.2308Z" fill="#0098d4" fill-rule="evenodd" opacity="1" stroke="none"/>
<path d="M70.3996 182.43L71.8593 226.755L108.698 252.539L107.239 208.212C107.239 208.212 70.3996 182.43 70.3996 182.43Z" fill="#0098d4" fill-rule="evenodd" opacity="1" stroke="none"/>
<path d="M32.102 112.318L33.562 156.644L70.4006 182.428L68.9409 138.102L32.1023 112.318L32.102 112.318Z" fill="#0098d4" fill-rule="evenodd" opacity="1" stroke="none"/>
<path d="M67.4817 93.7746L68.9406 138.102L105.779 163.886L104.32 119.559L67.4817 93.7746Z" fill="#0098d4" fill-rule="evenodd" opacity="1" stroke="none"/>
<path d="M99.9434-13.4249L101.402 30.903L138.241 56.687L136.782 12.3592L99.9434-13.4249Z" fill="#0098d4" fill-rule="evenodd" opacity="1" stroke="none"/>
</g>
</g>
</g>
</g>
<g clip-path="url(#ArtboardFrame)" id="Text" vectornator:layerName="Text">
<path d="M444.82 116.24L414.82 116.24C413.118 116.237 411.631 117.391 411.21 119.04L399.13 166.42C398.995 166.976 398.497 167.367 397.925 167.367C397.353 167.367 396.855 166.976 396.72 166.42L384.5 119C384.076 117.358 382.596 116.211 380.9 116.21L350.9 116.21C348.846 116.21 347.18 117.876 347.18 119.93L347.18 202.7C347.18 204.754 348.846 206.42 350.9 206.42L366.29 206.42C368.341 206.414 370 204.751 370 202.7L370 147.52C370.001 146.897 370.465 146.371 371.084 146.292C371.702 146.214 372.283 146.607 372.44 147.21L386.83 203.62C387.251 205.269 388.738 206.423 390.44 206.42L405.31 206.42C407.012 206.423 408.499 205.269 408.92 203.62L423.35 147.19C423.507 146.587 424.088 146.194 424.706 146.272C425.325 146.351 425.789 146.877 425.79 147.5L425.79 202.7C425.787 203.687 426.178 204.635 426.877 205.333C427.575 206.032 428.523 206.423 429.51 206.42L444.86 206.42C446.915 206.42 448.58 204.755 448.58 202.7L448.58 120C448.591 119 448.198 118.037 447.491 117.329C446.783 116.622 445.82 116.229 444.82 116.24Z" fill="#232323" fill-rule="evenodd" opacity="1" stroke="none"/>
<path d="M3.72 127.3L21.32 127.3C23.3745 127.3 25.04 128.966 25.04 131.02L25.04 140.62C25.04 142.674 23.3745 144.34 21.32 144.34L3.72 144.34C1.6655 144.34-7.64535e-07 142.674-9.50936e-08 140.62L-9.50936e-08 131.02C-1.03264e-06 128.966 1.6655 127.3 3.72 127.3Z" fill="#232323" fill-rule="evenodd" opacity="1" stroke="none"/>
<path d="M289.66 116.24L221.07 116.24C220.083 116.237 219.135 116.628 218.437 117.327C217.738 118.025 217.347 118.973 217.35 119.96L217.35 202.7C217.347 203.687 217.738 204.635 218.437 205.333C219.135 206.032 220.083 206.423 221.07 206.42L289.66 206.42C290.647 206.423 291.595 206.032 292.293 205.333C292.992 204.635 293.383 203.687 293.38 202.7L293.38 189.7C293.38 187.645 291.715 185.98 289.66 185.98L247.12 185.98C246.093 185.98 245.26 185.147 245.26 184.12L245.26 170.05C245.26 169.023 246.093 168.19 247.12 168.19L284.91 168.19C286.962 168.185 288.625 166.522 288.63 164.47L288.63 153.54C288.63 151.485 286.964 149.82 284.91 149.82L247.12 149.82C246.095 149.815 245.265 148.985 245.26 147.96L245.26 137.35C245.26 136.323 246.093 135.49 247.12 135.49L289.66 135.49C291.714 135.49 293.38 133.825 293.38 131.77L293.38 120C293.393 119.006 293.007 118.048 292.308 117.341C291.608 116.634 290.654 116.237 289.66 116.24Z" fill="#232323" fill-rule="evenodd" opacity="1" stroke="none"/>
<path d="M3.72 152.15L21.32 152.15C23.3745 152.15 25.04 153.815 25.04 155.87L25.04 202.7C25.04 204.754 23.3745 206.42 21.32 206.42L3.72 206.42C1.6655 206.42-7.64535e-07 204.754-9.50936e-08 202.7L-9.50936e-08 155.87C-1.03264e-06 153.815 1.6655 152.15 3.72 152.15Z" fill="#232323" fill-rule="evenodd" opacity="1" stroke="none"/>
<path d="M105.911 130.187C90.491 160.036 90.491 160.036 90.491 160.036L101.804 188.122L126.781 196.639L146.293 176.528L139.005 143.652L118.551 130.881C118.551 130.881 121.331 100.337 105.911 130.187Z" fill="#ffffff" fill-rule="evenodd" opacity="1" stroke="none"/>
<path d="M160.91 155L125.29 155C124.303 154.997 123.355 155.388 122.657 156.087C121.958 156.785 121.567 157.733 121.57 158.72L121.57 170C121.567 170.987 121.958 171.935 122.657 172.633C123.355 173.332 124.303 173.723 125.29 173.72L140.21 173.72L140.21 180.46C140.216 181.609 139.687 182.695 138.78 183.4C134.4 186.75 129.94 188.29 121.53 188.29C109.23 188.44 99.97 179.64 100.72 161.01C100.72 145.51 105.97 134.95 120.72 134.53C127.51 134.41 133.01 137.3 135.64 142.86C136.249 144.173 137.563 145.015 139.01 145.02L159.4 145.02C160.513 145.02 161.567 144.522 162.274 143.662C162.981 142.803 163.265 141.672 163.05 140.58C161.24 131.45 153.33 121.58 142.05 117.37C132.05 113.51 106.63 113.51 96.78 119.03C72.37 129.66 67.17 164.15 78.38 186.15C85.73 202.25 103.38 208.06 120.94 208.06C141.35 208.06 154.3 200.37 160.44 195.53C163.104 193.417 164.655 190.201 164.65 186.8L164.65 158.72C164.653 157.729 164.259 156.778 163.556 156.079C162.854 155.381 161.901 154.992 160.91 155Z" fill="#232323" fill-rule="evenodd" opacity="1" stroke="#ffffff" stroke-linecap="butt" stroke-linejoin="miter" stroke-width="15"/>
<path d="M160.91 155L125.29 155C124.303 154.997 123.355 155.388 122.657 156.087C121.958 156.785 121.567 157.733 121.57 158.72L121.57 170C121.567 170.987 121.958 171.935 122.657 172.633C123.355 173.332 124.303 173.723 125.29 173.72L140.21 173.72L140.21 180.46C140.216 181.609 139.687 182.695 138.78 183.4C134.4 186.75 129.94 188.29 121.53 188.29C109.23 188.44 99.97 179.64 100.72 161.01C100.72 145.51 105.97 134.95 120.72 134.53C127.51 134.41 133.01 137.3 135.64 142.86C136.249 144.173 137.563 145.015 139.01 145.02L159.4 145.02C160.513 145.02 161.567 144.522 162.274 143.662C162.981 142.803 163.265 141.672 163.05 140.58C161.24 131.45 153.33 121.58 142.05 117.37C132.05 113.51 106.63 113.51 96.78 119.03C72.37 129.66 67.17 164.15 78.38 186.15C85.73 202.25 103.38 208.06 120.94 208.06C141.35 208.06 154.3 200.37 160.44 195.53C163.104 193.417 164.655 190.201 164.65 186.8L164.65 158.72C164.653 157.729 164.259 156.778 163.556 156.079C162.854 155.381 161.901 154.992 160.91 155Z" fill="#232323" fill-rule="evenodd" opacity="1" stroke="none"/>
</g>
<g clip-path="url(#ArtboardFrame)" id="Gear" vectornator:layerName="Gear">
<g opacity="1">
<path d="M383.66 215.2C381.854 214.158 379.805 213.61 377.72 213.61L350.43 213.61C347.62 213.61 344.925 212.491 342.942 210.5C340.958 208.509 339.849 205.81 339.86 203L339.86 119.62C339.86 113.782 344.592 109.05 350.43 109.05L377.72 109.05C379.805 109.05 381.854 108.502 383.66 107.46C387.214 105.404 388.435 100.86 386.39 97.3L376.33 79.88C374.271 76.3233 369.72 75.1063 366.16 77.16L344 89.93C340.979 91.6667 337.157 91.0768 334.8 88.51C332.44 85.81 329.69 83.51 327.25 80.88C325.442 78.4938 325.234 75.2587 326.72 72.66L339.5 50.53C341.547 46.9723 340.331 42.4291 336.78 40.37L319.4 30.31C315.849 28.2453 311.296 29.4495 309.23 33L296.47 55.14C294.74 58.1487 291.153 59.5534 287.84 58.52C284.84 57.52 281.76 56.75 278.65 56.07C275.261 55.3068 272.855 52.2941 272.86 48.82L272.86 23.29C272.86 19.181 269.529 15.85 265.42 15.85L245.31 15.85C241.201 15.85 237.87 19.181 237.87 23.29L237.87 68C237.886 77.4378 236.521 86.8271 233.82 95.87C233.555 96.7393 233.791 97.6837 234.434 98.3262C235.076 98.9687 236.021 99.2047 236.89 98.94C301 81 347.67 157.29 302.62 206.08L302.62 206.08C277.48 233.68 230.8 232.85 206.62 204.48C205.965 203.736 204.927 203.458 203.988 203.775C203.048 204.091 202.391 204.941 202.32 205.93C200.56 231.93 194.25 261.93 173.69 279.73C173.302 280.06 173.096 280.556 173.138 281.064C173.179 281.572 173.463 282.028 173.9 282.29L191.32 292.35C193.029 293.339 195.061 293.608 196.969 293.098C198.876 292.588 200.503 291.34 201.49 289.63L214.25 267.52C215.978 264.508 219.567 263.103 222.88 264.14C225.88 265.09 228.96 265.91 232.07 266.59C235.459 267.353 237.865 270.366 237.86 273.84L237.86 299.37C237.86 303.479 241.191 306.81 245.3 306.81L265.41 306.81C269.519 306.81 272.85 303.479 272.85 299.37L272.85 273.84C272.845 270.366 275.251 267.353 278.64 266.59C281.75 265.91 284.82 265.09 287.83 264.14C291.143 263.107 294.73 264.511 296.46 267.52L309.22 289.63C310.207 291.34 311.834 292.588 313.741 293.098C315.649 293.608 317.681 293.339 319.39 292.35L336.81 282.29C340.361 280.231 341.577 275.688 339.53 272.13L326.76 250C325.025 246.989 325.607 243.177 328.16 240.82C330.48 238.7 332.707 236.477 334.84 234.15C337.197 231.583 341.019 230.993 344.04 232.73L366.16 245.51C369.724 247.55 374.267 246.331 376.33 242.78L386.39 225.36C388.429 221.799 387.21 217.259 383.66 215.2Z" fill="#0098d4" fill-rule="evenodd" opacity="1" stroke="none"/>
</g>
</g>
<g id="Cell" vectornator:layerName="Cell">
<path d="M120.19 42C114.268 42 109.468 46.8015 109.47 52.7233C109.472 58.6451 114.275 63.4437 120.197 63.44C126.118 63.4363 130.916 58.6318 130.91 52.71C130.913 49.867 129.784 47.1398 127.773 45.1304C125.761 43.121 123.033 41.9947 120.19 42Z" fill="#232323" fill-rule="evenodd" opacity="0" stroke="none"/>
<path d="M167.87 44.71C152.751 44.7045 140.492 56.958 140.49 72.0767C140.488 87.1953 152.745 99.4518 167.863 99.45C182.982 99.4482 195.236 87.1886 195.23 72.07C195.224 56.9618 182.978 44.7155 167.87 44.71ZM167.87 85.44C160.485 85.4455 154.494 79.462 154.49 72.0767C154.486 64.6913 160.471 58.7018 167.857 58.7C175.242 58.6982 181.23 64.6846 181.23 72.07C181.219 79.4456 175.246 85.4235 167.87 85.44Z" fill="#232323" fill-rule="evenodd" opacity="0" stroke="none"/>
<path d="M227.46 68C227.46 24.55 186.67 0 146.66 0C76.58 0 38.31 75.58 43.68 192.88C46.53 255.14 78.31 286.17 116.33 286.17C210.52 286.17 186.69 190.27 196.61 152.79C205.1 120.69 227.46 107.69 227.46 68ZM179.69 148.36C176.94 158.77 176.38 171.58 175.8 185.15C174.93 205.29 173.95 228.15 165.72 244.41C162.305 251.528 156.827 257.455 150 261.42C141.63 266.23 130.3 268.68 116.32 268.68C102.07 268.68 89.58 262.78 80.21 251.62C68.91 238.17 62.32 217.62 61.15 192.08C59.49 155.91 62.09 123.92 68.86 97.02C75.26 71.62 85.08 51.84 98.07 38.25C111.22 24.48 127.57 17.5 146.65 17.5C163.33 17.5 179.65 22.64 191.46 31.61C203.74 41 210 53.17 210 68C210 87.31 203.76 98.25 195.86 112.09C190.11 122 183.65 133.36 179.69 148.32L179.69 148.36Z" fill="#0098d4" fill-rule="evenodd" opacity="1" stroke="none"/>
</g>
</svg>
