<?xml version="1.0" encoding="UTF-8" standalone="no"?>
<!DOCTYPE svg PUBLIC "-//W3C//DTD SVG 1.1//EN" "http://www.w3.org/Graphics/SVG/1.1/DTD/svg11.dtd">
<!-- Created with Vectornator (http://vectornator.io/) -->
<svg height="100%" stroke-miterlimit="10" style="fill-rule:nonzero;clip-rule:evenodd;stroke-linecap:round;stroke-linejoin:round;" version="1.1" viewBox="0 0 3840 2160" width="100%" xml:space="preserve" xmlns="http://www.w3.org/2000/svg" xmlns:vectornator="http://vectornator.io" xmlns:xlink="http://www.w3.org/1999/xlink">
<defs>
<clipPath id="TextBounds">
<rect height="950.178" width="3840" x="20" y="624.911"/>
</clipPath>
</defs>
<clipPath id="ArtboardFrame">
<rect height="2160" width="3840" x="0" y="0"/>
</clipPath>
<g clip-path="url(#ArtboardFrame)" id="Dark" vectornator:layerName="Dark">
<path d="M400.033 451.504L3840 451.504L3439.46 1677.64L-3.2685e-13 1677.64L400.033 451.504Z" fill="#343a40" fill-rule="nonzero" opacity="1" stroke="none"/>
<g fill="#ffffff" opacity="1" stroke="none">
<path clip-path="url(#TextBounds)" d="M766.4 1475.41C722 1475.41 681.5 1466.26 644.9 1447.96C608.3 1429.66 576.8 1405.21 550.4 1374.61C524 1344.01 503.6 1309.36 489.2 1270.66C474.8 1231.96 467.6 1192.21 467.6 1151.41C467.6 1108.81 475.1 1068.16 490.1 1029.46C505.1 990.761 526.25 956.261 553.55 925.961C580.85 895.661 612.65 871.661 648.95 853.961C685.25 836.261 724.4 827.411 766.4 827.411C810.8 827.411 851.3 836.711 887.9 855.311C924.5 873.911 955.85 898.811 981.95 930.011C1008.05 961.211 1028.3 996.011 1042.7 1034.41C1057.1 1072.81 1064.3 1111.81 1064.3 1151.41C1064.3 1194.61 1056.8 1235.56 1041.8 1274.26C1026.8 1312.96 1005.8 1347.46 978.8 1377.76C951.8 1408.06 920.15 1431.91 883.85 1449.31C847.55 1466.71 808.4 1475.41 766.4 1475.41ZM499.1 1151.41C499.1 1189.81 505.7 1226.56 518.9 1261.66C532.1 1296.76 550.55 1328.11 574.25 1355.71C597.95 1383.31 626.15 1405.21 658.85 1421.41C691.55 1437.61 727.4 1445.71 766.4 1445.71C806 1445.71 842.3 1437.31 875.3 1420.51C908.3 1403.71 936.5 1381.21 959.9 1353.01C983.3 1324.81 1001.3 1293.31 1013.9 1258.51C1026.5 1223.71 1032.8 1188.01 1032.8 1151.41C1032.8 1113.01 1026.2 1076.26 1013 1041.16C999.8 1006.06 981.2 974.711 957.2 947.111C933.2 919.511 904.85 897.611 872.15 881.411C839.45 865.211 804.2 857.111 766.4 857.111C726.2 857.111 689.75 865.511 657.05 882.311C624.35 899.111 596.3 921.611 572.9 949.811C549.5 978.011 531.35 1009.51 518.45 1044.31C505.55 1079.11 499.1 1114.81 499.1 1151.41Z"/>
<path clip-path="url(#TextBounds)" d="M1562.9 926.411C1550.9 913.811 1538.6 903.011 1526 894.011C1513.4 885.011 1499.9 877.811 1485.5 872.411C1471.1 867.011 1455.8 862.961 1439.6 860.261C1423.4 857.561 1405.7 856.211 1386.5 856.211C1318.7 856.211 1269.5 869.111 1238.9 894.911C1208.3 920.711 1193 955.211 1193 998.411C1193 1027.81 1199.6 1050.91 1212.8 1067.71C1226 1084.51 1247 1097.86 1275.8 1107.76C1304.6 1117.66 1341.8 1127.41 1387.4 1137.01C1434.2 1146.61 1474.7 1157.71 1508.9 1170.31C1543.1 1182.91 1569.5 1200.01 1588.1 1221.61C1606.7 1243.21 1616 1272.91 1616 1310.71C1616 1337.71 1610.75 1361.56 1600.25 1382.26C1589.75 1402.96 1574.6 1420.21 1554.8 1434.01C1535 1447.81 1511.15 1458.16 1483.25 1465.06C1455.35 1471.96 1424.3 1475.41 1390.1 1475.41C1355.9 1475.41 1324.1 1471.96 1294.7 1465.06C1265.3 1458.16 1237.7 1447.51 1211.9 1433.11C1186.1 1418.71 1161.8 1400.41 1139 1378.21L1157.9 1354.81C1172.3 1370.41 1188.05 1384.06 1205.15 1395.76C1222.25 1407.46 1240.55 1417.21 1260.05 1425.01C1279.55 1432.81 1300.25 1438.66 1322.15 1442.56C1344.05 1446.46 1367 1448.41 1391 1448.41C1451 1448.41 1498.25 1437.16 1532.75 1414.66C1567.25 1392.16 1584.5 1359.01 1584.5 1315.21C1584.5 1284.61 1577 1260.16 1562 1241.86C1547 1223.56 1524.2 1208.56 1493.6 1196.86C1463 1185.16 1424 1174.51 1376.6 1164.91C1330.4 1155.31 1291.25 1144.81 1259.15 1133.41C1227.05 1122.01 1202.75 1106.11 1186.25 1085.71C1169.75 1065.31 1161.5 1037.71 1161.5 1002.91C1161.5 965.111 1170.8 933.161 1189.4 907.061C1208 880.961 1234.1 861.161 1267.7 847.661C1301.3 834.161 1340.6 827.411 1385.6 827.411C1413.2 827.411 1438.4 830.111 1461.2 835.511C1484 840.911 1505.15 849.011 1524.65 859.811C1544.15 870.611 1562.6 885.011 1580 903.011L1562.9 926.411Z"/>
<path clip-path="url(#TextBounds)" d="M1683.5 1146.91C1683.5 1107.91 1690.25 1069.66 1703.75 1032.16C1717.25 994.661 1737.05 960.461 1763.15 929.561C1789.25 898.661 1821.2 874.061 1859 855.761C1896.8 837.461 1939.7 828.311 1987.7 828.311C2044.7 828.311 2093.6 841.361 2134.4 867.461C2175.2 893.561 2205.5 927.011 2225.3 967.811L2161.4 1009.21C2148.8 982.211 2132.75 960.761 2113.25 944.861C2093.75 928.961 2072.75 917.711 2050.25 911.111C2027.75 904.511 2005.7 901.211 1984.1 901.211C1948.7 901.211 1917.35 908.411 1890.05 922.811C1862.75 937.211 1839.8 956.411 1821.2 980.411C1802.6 1004.41 1788.65 1031.26 1779.35 1060.96C1770.05 1090.66 1765.4 1120.51 1765.4 1150.51C1765.4 1183.51 1770.95 1215.31 1782.05 1245.91C1793.15 1276.51 1808.6 1303.51 1828.4 1326.91C1848.2 1350.31 1871.6 1368.91 1898.6 1382.71C1925.6 1396.51 1955 1403.41 1986.8 1403.41C2009 1403.41 2031.8 1399.51 2055.2 1391.71C2078.6 1383.91 2100.5 1371.76 2120.9 1355.26C2141.3 1338.76 2157.5 1317.31 2169.5 1290.91L2237 1327.81C2223.8 1359.61 2203.4 1386.61 2175.8 1408.81C2148.2 1431.01 2117.45 1447.81 2083.55 1459.21C2049.65 1470.61 2016.2 1476.31 1983.2 1476.31C1939.4 1476.31 1899.2 1466.86 1862.6 1447.96C1826 1429.06 1794.35 1403.86 1767.65 1372.36C1740.95 1340.86 1720.25 1305.46 1705.55 1266.16C1690.85 1226.86 1683.5 1187.11 1683.5 1146.91Z"/>
<path clip-path="url(#TextBounds)" d="M2524.1 831.911L2592.5 831.911L2853.5 1470.91L2767.1 1470.91L2691.5 1283.71L2423.3 1283.71L2348.6 1470.91L2262.2 1470.91L2524.1 831.911ZM2673.5 1220.71L2558.3 925.511L2439.5 1220.71L2673.5 1220.71Z"/>
<path clip-path="url(#TextBounds)" d="M2939 1470.91L2939 831.911L3212.6 831.911C3240.8 831.911 3266.6 837.761 3290 849.461C3313.4 861.161 3333.8 876.761 3351.2 896.261C3368.6 915.761 3382.1 937.661 3391.7 961.961C3401.3 986.261 3406.1 1011.01 3406.1 1036.21C3406.1 1065.61 3400.55 1093.51 3389.45 1119.91C3378.35 1146.31 3362.75 1168.81 3342.65 1187.41C3322.55 1206.01 3299 1218.91 3272 1226.11L3426.8 1470.91L3335 1470.91L3189.2 1241.41L3020 1241.41L3020 1470.91L2939 1470.91ZM3020 1169.41L3213.5 1169.41C3235.7 1169.41 3255.05 1163.26 3271.55 1150.96C3288.05 1138.66 3300.95 1122.31 3310.25 1101.91C3319.55 1081.51 3324.2 1059.61 3324.2 1036.21C3324.2 1012.21 3318.8 990.161 3308 970.061C3297.2 949.961 3283.1 933.911 3265.7 921.911C3248.3 909.911 3229.1 903.911 3208.1 903.911L3020 903.911L3020 1169.41Z"/>
</g>
</g>
</svg>
