<?xml version="1.0" encoding="UTF-8" standalone="no"?>
<!DOCTYPE svg PUBLIC "-//W3C//DTD SVG 1.1//EN" "http://www.w3.org/Graphics/SVG/1.1/DTD/svg11.dtd">
<!-- Created with Vectornator (http://vectornator.io/) -->
<svg height="100%" stroke-miterlimit="10" style="fill-rule:nonzero;clip-rule:evenodd;stroke-linecap:round;stroke-linejoin:round;" version="1.1" viewBox="0 0 3370.82 2384.24" width="100%" xml:space="preserve" xmlns="http://www.w3.org/2000/svg" xmlns:vectornator="http://vectornator.io" xmlns:xlink="http://www.w3.org/1999/xlink">
<defs/>
<g id="Grey" vectornator:layerName="Grey">
<path d="M2220.7 514.222C2110.14 488.591 2000.99 455.821 1889.01 437.329C1817.6 425.536 1744.67 424.897 1672.3 423.659C1623.76 422.829 1575.18 426.575 1526.84 431.133C1478.1 435.73 1429.18 440.763 1381.32 451.099C1286.61 471.553 1193.62 499.279 1099.78 523.368C1089.79 484.945 1085.16 444.711 1069.81 408.1C1056.94 377.421 1039 348.124 1016.15 323.95C998.984 305.792 976.886 290.135 952.626 284.147C925.673 277.494 896.647 282.322 869.417 287.733C853.947 290.807 839.837 299.655 827.186 309.074C801.425 328.252 781.898 359.676 772.35 389.766C766.409 408.487 762.77 428.154 762.053 447.782C761.069 474.725 758.365 503.051 767.28 528.494C784.592 577.906 815.258 621.57 839.247 668.107C805.338 697.286 764.224 722.137 742.755 761.384C747.879 760.805 754.001 762.738 758.129 759.647C794.256 732.592 827.135 701.451 861.638 672.353C840.236 630.732 813.587 591.416 797.434 547.491C785.527 515.114 776.624 480.236 778.316 445.78C779.806 415.457 793.036 386.351 806.681 359.23C813.364 345.946 825.688 335.85 837.896 327.359C851.85 317.655 867.219 308.449 883.956 305.488C908.542 301.138 935.178 298.042 958.858 305.958C981.642 313.575 999.671 332.202 1016.15 349.681C1028.27 362.533 1036.32 378.996 1043.1 395.306C1057.96 431.058 1072.71 467.309 1080.78 505.175C1084.29 521.632 1078.44 538.747 1077.26 555.532C1121.35 540.053 1164.79 522.548 1209.54 509.095C1394.49 453.497 1586.01 433.975 1778.49 446.355C1821.43 449.117 1864.2 454.688 1906.7 461.452C2019.88 479.467 2129.71 514.668 2240 545.855C2249.65 506.339 2255.66 465.751 2268.95 427.306C2278.1 400.829 2290.68 375.157 2306.9 352.319C2318.66 335.768 2333.7 320.51 2351.61 310.956C2371.76 300.209 2394.95 293.865 2417.77 293.185C2436.47 292.627 2455.07 299.571 2472.09 307.365C2487.36 314.364 2501.21 324.835 2512.99 336.816C2521.29 345.256 2527.07 356.239 2531.09 367.372C2537.44 384.949 2543.61 403.298 2543.76 421.987C2544.02 455.888 2543.7 491.119 2532.3 523.047C2514.38 573.222 2482.28 617.135 2457.27 664.179C2521.28 711.274 2521.28 711.274 2585.3 758.368C2585.08 754.543 2587.38 749.575 2584.64 746.894C2558.88 721.652 2528.23 701.798 2502.15 676.888C2494.95 670.007 2482.35 661.597 2485.43 652.122C2495.06 622.442 2521.41 600.903 2535.81 573.223C2547.65 550.476 2558.5 526.653 2563.78 501.561C2568.62 478.597 2567.81 454.56 2565.73 431.186C2563.51 406.281 2559.52 381.135 2550.96 357.642C2545.87 343.66 2536.12 331.415 2525.56 320.935C2512.26 307.739 2496.97 296.17 2480.33 287.564C2465.11 279.694 2448.23 274.691 2431.28 272.186C2413.81 269.604 2395.45 268.275 2378.31 272.487C2360.84 276.779 2343.99 285.419 2330.24 297.008C2309.36 314.596 2288.48 334.153 2276.18 358.526C2251.38 407.721 2239.2 462.323 2220.7 514.222ZM1292.76 1148.96C1271.26 1171.68 1263.46 1208.85 1273.46 1239.02C1283.43 1269.09 1311.96 1291.01 1339.13 1264.88C1363.46 1241.48 1367.36 1207.92 1356.52 1176.7C1350.67 1159.87 1337.8 1132.18 1315.2 1134.63C1307.77 1135.44 1296.15 1145.39 1292.76 1148.96ZM2051.84 1137.71C2015.95 1145.06 2004.09 1208.65 2020.08 1240.63C2028.8 1258.07 2049.64 1282.44 2071.78 1274.21C2127.44 1253.51 2112.56 1125.27 2051.84 1137.71ZM1598.47 1202.75C1602.31 1214.27 1617.4 1211.22 1628.06 1211.63C1643.92 1212.24 1659.79 1212.3 1675.66 1212.4C1700.32 1212.56 1724.98 1212.4 1749.64 1212.4C1749.64 1194.95 1717.73 1193.04 1705.01 1191.5C1667.98 1187.01 1633.89 1192.64 1598.47 1202.75ZM1607.97 1309.78C1575.12 1314.37 1542.92 1325.95 1513.69 1341.65C1503.28 1347.24 1492.83 1353.23 1484.14 1361.25C1477.36 1367.5 1472.62 1375.75 1468.06 1383.76C1457.87 1401.64 1464.89 1422.36 1473.69 1438.75C1487.35 1464.18 1514.92 1480.13 1539.22 1492.72C1566.48 1506.84 1588.31 1506.45 1620.34 1508.1C1662.52 1510.26 1710.84 1510.77 1752.9 1503.8C1810.95 1494.18 1913.28 1428.37 1847.29 1365.07C1843.59 1361.51 1839.5 1358.31 1835.13 1355.62C1761.11 1309.99 1692.58 1297.99 1607.97 1309.78ZM2034.15 1353.21C2051.3 1374.11 2070.14 1393.74 2085.61 1415.93C2098.66 1434.63 2109 1455.12 2119.38 1475.43C2140.52 1516.77 2147.87 1564.73 2148.33 1610.52C2148.76 1653.08 2142.32 1697.77 2126.01 1737.44C2112.45 1770.41 2097.73 1805.63 2077.27 1835.67C2063.41 1856.02 2045.55 1874.19 2035.76 1896.78C2036.83 1896.78 2038.16 1897.48 2038.97 1896.78C2046.79 1890.06 2054.14 1882.78 2060.99 1875.07C2081.63 1851.84 2103.42 1826.63 2119.38 1799.38C2182.37 1691.92 2188.05 1562.89 2129.75 1451.33C2112.33 1418 2088.06 1378.56 2055.18 1358.01C2049.08 1354.2 2041.26 1352.11 2034.15 1353.21ZM1636.92 1948.24C1698.03 1948.24 1698.03 1948.24 1759.14 1948.24C1754.23 1925.48 1732.59 1924.01 1711.2 1922.81C1684.72 1921.34 1648.87 1920.5 1636.92 1948.24Z" fill="#343a40" fill-rule="nonzero" opacity="1" stroke="#343a40" stroke-linecap="butt" stroke-linejoin="round" stroke-width="64"/>
</g>
</svg>
